<svg width="40" height="40" viewBox="0 0 40 40" fill="none" xmlns="http://www.w3.org/2000/svg">
<path d="M19.8354 0C18.4469 0 17.356 1.09095 17.356 2.47943C17.356 3.86791 18.4469 4.95886 19.8354 4.95886C21.2239 4.95886 22.3149 3.86791 22.3149 2.47943C22.3149 1.09095 21.2239 0 19.8354 0ZM7.43828 4.95886C6.04981 4.95886 4.95886 6.04981 4.95886 7.43828C4.95886 8.82676 6.04981 9.91771 7.43828 9.91771C8.82676 9.91771 9.91771 8.82676 9.91771 7.43828C9.91771 6.04981 8.82676 4.95886 7.43828 4.95886ZM32.2326 4.95886C30.8441 4.95886 29.7531 6.04981 29.7531 7.43828C29.7531 8.82676 30.8441 9.91771 32.2326 9.91771C33.621 9.91771 34.712 8.82676 34.712 7.43828C34.712 6.04981 33.621 4.95886 32.2326 4.95886ZM19.8354 9.91771C14.3807 9.91771 9.91771 14.3807 9.91771 19.8354C9.91771 25.2902 14.3807 29.7531 19.8354 29.7531C25.2902 29.7531 29.7531 25.2902 29.7531 19.8354C29.7531 14.3807 25.2902 9.91771 19.8354 9.91771ZM2.47943 17.356C1.09095 17.356 0 18.4469 0 19.8354C0 21.2239 1.09095 22.3149 2.47943 22.3149C3.86791 22.3149 4.95886 21.2239 4.95886 19.8354C4.95886 18.4469 3.86791 17.356 2.47943 17.356ZM37.1914 17.356C35.8029 17.356 34.712 18.4469 34.712 19.8354C34.712 21.2239 35.8029 22.3149 37.1914 22.3149C38.5799 22.3149 39.6709 21.2239 39.6709 19.8354C39.6709 18.4469 38.5799 17.356 37.1914 17.356ZM7.43828 29.7531C6.04981 29.7531 4.95886 30.8441 4.95886 32.2326C4.95886 33.621 6.04981 34.712 7.43828 34.712C8.82676 34.712 9.91771 33.621 9.91771 32.2326C9.91771 30.8441 8.82676 29.7531 7.43828 29.7531ZM32.2326 29.7531C30.8441 29.7531 29.7531 30.8441 29.7531 32.2326C29.7531 33.621 30.8441 34.712 32.2326 34.712C33.621 34.712 34.712 33.621 34.712 32.2326C34.712 30.8441 33.621 29.7531 32.2326 29.7531ZM19.8354 34.712C18.4469 34.712 17.356 35.8029 17.356 37.1914C17.356 38.5799 18.4469 39.6709 19.8354 39.6709C21.2239 39.6709 22.3149 38.5799 22.3149 37.1914C22.3149 35.8029 21.2239 34.712 19.8354 34.712Z" fill="white"/>
</svg>
